#!OML:ASF X:\für Bonn\!DataBase\2005_08_12_Daniel\c3d\Daniel.ASF
:FULLY-SPECIFIED
:DEGREES
2077
root -20.0022 17.5199 27.8312 -15.8834 263.035 -347.31
lowerback 11.0376 -0.432322 2.54
upperback 2.28098 -0.416559 -1.13804
thorax -3.83001 -0.273303 -2.55727
lowerneck -3.14007 -4.78687 -8.94894
upperneck 8.21453 -6.70525 8.74039
head 3.54811 -3.29065 3.82433
rclavicle 2.18663e-014 2.0276e-014
rhumerus -32.7696 8.42994 -103.175
rradius 45.8149
rwrist 7.43855
rhand -21.3687 18.5753
rfingers 7.12502
rthumb 5.0183 -11.3452
lclavicle 2.18663e-014 2.0276e-014
lhumerus -83.204 49.1498 14.8246
lradius 14.096
lwrist -56.6142
lhand -11.6226 -3.32101
lfingers 7.12502
lthumb 14.4206 26.158
rfemur -13.5006 26.9171 18.6153
rtibia 30.1105
rfoot -13.4036 20.2503
rtoes -13.8777
lfemur -10.4066 -23.7424 -12.7107
ltibia 34.6383
lfoot -24.4827 -20.4533
ltoes -6.0909
2078
root -20.0032 17.5289 27.9195 -13.2415 262.268 -349.811
lowerback 11.0062 -0.408439 2.38887
upperback 2.32069 -0.409175 -1.21871
thorax -3.77048 -0.26818 -2.55708
lowerneck -3.14619 -4.76855 -8.97962
upperneck 8.14067 -6.68042 8.81836
head 3.52825 -3.27632 3.85503
rclavicle -1.42131e-014 1.70955e-014
rhumerus -32.9892 8.54238 -103.126
rradius 45.0816
rwrist 7.8599
rhand -21.0549 18.5762
rfingers 7.12502
rthumb 5.32129 -11.337
lclavicle -1.42131e-014 1.70955e-014
lhumerus -83.6687 49.7365 13.9859
lradius 13.8966
lwrist -59.1401
lhand -10.8723 -3.10261
lfingers 7.12502
lthumb 15.1435 26.3233
rfemur -13.7898 26.52 18.186
rtibia 30.1028
rfoot -13.504 20.0348
rtoes -14.16
lfemur -10.3452 -23.1954 -13.1799
ltibia 34.5853
lfoot -24.4861 -19.943
ltoes -6.4135
2079
root -19.9973 17.5361 28.0045 -10.9441 261.498 -351.984
lowerback 11.0814 -0.36923 2.16736
upperback 2.32418 -0.386297 -1.28488
thorax -3.80625 -0.256277 -2.50405
lowerneck -3.12302 -4.76967 -8.93626
upperneck 8.08285 -6.67873 8.77798
head 3.50419 -3.27625 3.83648
rclavicle -9.93923e-015 -1.07344e-014
rhumerus -33.2884 8.76346 -103.016
rradius 44.3457
rwrist 8.20932
rhand -20.7096 18.7736
rfingers 7.12502
rthumb 5.65471 -11.1309
lclavicle -9.93923e-015 -1.07344e-014
lhumerus -84.1931 50.3159 13.0227
lradius 13.6591
lwrist -61.9383
lhand -10.1888 -2.92178
lfingers 7.12502
lthumb 15.8019 26.4533
rfemur -14.076 26.1079 17.781
rtibia 30.1454
rfoot -13.5588 19.4668
rtoes -14.4012
lfemur -10.3112 -22.5169 -13.6286
ltibia 34.5385
lfoot -24.4764 -19.5426
ltoes -6.75095
2080
root -19.9901 17.5424 28.0845 -9.40566 260.781 -353.423
lowerback 11.187 -0.365221 1.93461
upperback 2.33324 -0.410529 -1.32415
thorax -3.85555 -0.267684 -2.40985
lowerneck -3.14719 -4.75468 -8.9388
upperneck 8.07963 -6.6613 8.82524
head 3.50722 -3.26567 3.8519
rclavicle 1.56046e-014 5.1684e-015
rhumerus -33.5542 8.94332 -102.88
rradius 43.529
rwrist 8.7483
rhand -20.4293 19.0046
rfingers 7.12502
rthumb 5.92532 -10.8925
lclavicle 1.56046e-014 5.1684e-015
lhumerus -84.4212 50.8811 12.3849
lradius 13.399
lwrist -64.4987
lhand -9.49374 -2.82642
lfingers 7.12502
lthumb 16.4711 26.4944
rfemur -14.2917 25.6928 17.5145
rtibia 30.2408
rfoot -13.7652 18.5756
rtoes -14.7284
lfemur -10.2904 -21.935 -14.0113
ltibia 34.495
lfoot -24.4459 -19.152
ltoes -7.20111
2081
root -19.9823 17.5508 28.1601 -7.86788 260.134 -354.82
lowerback 11.2322 -0.400964 1.63542
upperback 2.32036 -0.495629 -1.36819
thorax -3.89705 -0.308068 -2.27427
lowerneck -3.17625 -4.73657 -9.04977
upperneck 8.14033 -6.64318 8.93359
head 3.53567 -3.25576 3.90341
rclavicle -2.36057e-014 -1.19271e-015
rhumerus -33.8077 9.12139 -102.748
rradius 42.6421
rwrist 9.36875
rhand -20.1061 19.3083
rfingers 7.12502
rthumb 6.23742 -10.5799
lclavicle -2.36057e-014 -1.19271e-015
lhumerus -84.0276 51.3266 12.6014
lradius 13.248
lwrist -66.3844
lhand -8.83616 -2.88209
lfingers 7.12502
lthumb 17.1041 26.385
rfemur -14.5572 25.1853 17.224
rtibia 30.3743
rfoot -13.8595 17.5054
rtoes -14.6524
lfemur -10.3411 -21.447 -14.3956
ltibia 34.4462
lfoot -24.4247 -18.7705
ltoes -7.55704
2082
root -19.9751 17.5559 28.2288 -6.62655 259.505 -355.951
lowerback 11.2636 -0.413786 1.27917
upperback 2.3541 -0.558477 -1.39939
thorax -3.87987 -0.336458 -2.09618
lowerneck -3.19369 -4.73464 -9.00988
upperneck 8.08601 -6.64229 8.97528
head 3.52221 -3.25238 3.90971
rclavicle 4.06515e-014 6.75868e-015
rhumerus -33.9756 9.27803 -102.559
rradius 41.7378
rwrist 9.96468
rhand -19.7419 19.601
rfingers 7.12502
rthumb 6.589 -10.2765
lclavicle 4.06515e-014 6.75868e-015
lhumerus -83.0846 51.783 13.4758
lradius 13.1728
lwrist -67.8707
lhand -8.23296 -3.04863
lfingers 7.12502
lthumb 17.6847 26.1672
rfemur -14.7473 24.6609 17.0277
rtibia 30.5323
rfoot -14.0189 16.1521
rtoes -14.491
lfemur -10.3403 -21.0246 -14.7604
ltibia 34.3811
lfoot -24.3642 -18.3084
ltoes -7.93069
2083
root -19.9694 17.5652 28.2938 -5.70011 258.925 -356.766
lowerback 11.2736 -0.474595 0.926328
upperback 2.36648 -0.683015 -1.41432
thorax -3.87476 -0.39526 -1.89423
lowerneck -3.23581 -4.7142 -9.04518
upperneck 8.15849 -6.62142 9.03674
head 3.55205 -3.24032 3.93429
rclavicle -1.78409e-014 7.15625e-015
rhumerus -34.1743 9.53365 -102.4
rradius 40.8136
rwrist 10.5389
rhand -19.4244 19.809
rfingers 7.12502
rthumb 6.89551 -10.0587
lclavicle -1.78409e-014 7.15625e-015
lhumerus -81.9289 52.1837 14.6483
lradius 13.1487
lwrist -68.8763
lhand -7.8101 -3.25685
lfingers 7.12502
lthumb 18.0916 25.9218
rfemur -14.9076 24.1522 16.9189
rtibia 30.7011
rfoot -14.279 14.6053
rtoes -14.5324
lfemur -10.3536 -20.6534 -15.0819
ltibia 34.2963
lfoot -24.2741 -17.9135
ltoes -8.07767
2084
root -19.964 17.5713 28.3575 -4.71904 258.329 -357.67
lowerback 11.3153 -0.524979 0.558202
upperback 2.37401 -0.797156 -1.45299
thorax -3.89053 -0.449216 -1.70981
lowerneck -3.17534 -4.70798 -9.09371
upperneck 8.12776 -6.62397 9.13838
head 3.53777 -3.24153 3.97504
rclavicle 3.61788e-014 -7.15625e-015
rhumerus -34.3747 9.66555 -102.203
rradius 39.9032
rwrist 11.1307
rhand -18.9905 20.0092
rfingers 7.12502
rthumb 7.31433 -9.84435
lclavicle 3.61788e-014 -7.15625e-015
lhumerus -81.2475 52.6962 15.1621
lradius 13.1513
lwrist -70.2224
lhand -7.59535 -3.42582
lfingers 7.12502
lthumb 18.2982 25.7335
rfemur -15.0134 23.657 16.8142
rtibia 30.8743
rfoot -14.5162 12.8785
rtoes -14.3795
lfemur -10.3248 -20.2642 -15.4336
ltibia 34.2
lfoot -24.1472 -17.5316
ltoes -8.17273
2085
root -19.9609 17.5814 28.4224 -3.98596 257.735 -358.324
lowerback 11.3117 -0.579883 0.23777
upperback 2.40282 -0.911175 -1.47774
thorax -3.85824 -0.503389 -1.5382
lowerneck -3.17067 -4.71187 -9.08877
upperneck 8.13099 -6.63692 9.19373
head 3.54071 -3.24645 3.9907
rclavicle 1.54058e-015 6.75868e-015
rhumerus -34.4939 9.71552 -101.93
rradius 38.9082
rwrist 11.8776
rhand -18.6459 20.1919
rfingers 7.12502
rthumb 7.6469 -9.64988
lclavicle 1.54058e-015 6.75868e-015
lhumerus -79.96 53.1803 16.4144
lradius 13.1571
lwrist -70.925
lhand -7.56448 -3.49805
lfingers 7.12502
lthumb 18.3279 25.6585
rfemur -15.0968 22.943 16.7874
rtibia 31.0338
rfoot -14.7693 11.1936
rtoes -14.278
lfemur -10.2738 -19.9566 -15.7781
ltibia 34.0868
lfoot -24.0966 -17.0534
ltoes -8.54633
2086
root -19.9597 17.5895 28.4864 -3.35897 257.108 -358.839
lowerback 11.2428 -0.633588 -0.058468
upperback 2.42674 -1.01922 -1.49881
thorax -3.79398 -0.55466 -1.3781
lowerneck -3.08148 -4.72515 -9.20126
upperneck 8.05124 -6.66987 9.38981
head 3.51502 -3.26215 4.0703
rclavicle -1.09332e-014 -1.47101e-014
rhumerus -34.5863 9.82562 -101.661
rradius 37.8948
rwrist 12.409
rhand -18.2431 20.2466
rfingers 7.12502
rthumb 8.03571 -9.58068
lclavicle -1.09332e-014 -1.47101e-014
lhumerus -78.7433 53.7294 17.4969
lradius 13.1456
lwrist -71.5457
lhand -7.57855 -3.55721
lfingers 7.12502
lthumb 18.3143 25.6006
rfemur -15.2074 22.197 16.7953
rtibia 31.2068
rfoot -15.0321 9.44875
rtoes -14.3144
lfemur -10.2405 -19.7056 -16.0881
ltibia 33.9581
lfoot -24.0021 -16.5137
ltoes -8.78523
